# xmcd
#
# Track frame offsets: 
#        150
#        11282
#        21856
#        32173
#        44096
#        53428
#        66298
#        79510
#        91336
#        103962
#        113662
#        126275
#        140066
#        153087
#        163969
#        176408
#        187329
#        203436
#        216180
#        228818
#        244549
#        257195
#        266245
#
# Disc length: 3712 seconds
#
# Revision: 0
# Processed by: cddbd v1.5.2PL0 Copyright (c) Steve Scherf et al.
# Submitted via: ExactAudioCopy v0.99pb3
#
DISCID=400e7e17
DTITLE=Johnny Paycheck - At Carnegie Hall
DYEAR=1966
DGENRE=Acid
TTITLE0=Heartbreak Tennessee
TTITLE1=A-11
TTITLE2=The Lonely Sounds of Town
TTITLE3=Don't Tell My Wife
TTITLE4=Where in the World
TTITLE5=The Real Mr. Heartache
TTITLE6=What's Gonna Happen to the Little Folks?
TTITLE7=Poor Boy
TTITLE8=Help Me Hank, I'm Fallin'
TTITLE9=King of the Road
TTITLE10=Bayou Bum
TTITLE11=Not What I Had in Mind
TTITLE12=Pride Covered Ears
TTITLE13=He's in a Hurry
TTITLE14=Something He'll Have to Learn
TTITLE15=My Last Night in Town
TTITLE16=Ballad of the Green Berets
TTITLE17=Yes, She's Gone
TTITLE18=Wherever You Are
TTITLE19=Handcuffed to Love
TTITLE20=Ballad of Frisco Bay
TTITLE21=Big Town Baby
TTITLE22=Understanding Makes Love
EXTD=
EXTT0=
EXTT1=
EXTT2=
EXTT3=
EXTT4=
EXTT5=
EXTT6=
EXTT7=
EXTT8=
EXTT9=
EXTT10=
EXTT11=
EXTT12=
EXTT13=
EXTT14=
EXTT15=
EXTT16=
EXTT17=
EXTT18=
EXTT19=
EXTT20=
EXTT21=
EXTT22=
PLAYORDER=
